<?xml version="1.0" encoding="UTF-8" standalone="no"?>
<!-- Created with Inkscape (http://www.inkscape.org/) -->

<svg
   xmlns:dc="http://purl.org/dc/elements/1.1/"
   xmlns:cc="http://creativecommons.org/ns#"
   xmlns:rdf="http://www.w3.org/1999/02/22-rdf-syntax-ns#"
   xmlns:svg="http://www.w3.org/2000/svg"
   xmlns="http://www.w3.org/2000/svg"
   xmlns:xlink="http://www.w3.org/1999/xlink"
   xmlns:sodipodi="http://sodipodi.sourceforge.net/DTD/sodipodi-0.dtd"
   xmlns:inkscape="http://www.inkscape.org/namespaces/inkscape"
   width="100"
   height="100"
   id="svg5479"
   version="1.1"
   inkscape:version="0.48.5 r10040"
   sodipodi:docname="avatar.svg">
  <defs
     id="defs5481">
    <linearGradient
       id="linearGradient6104">
      <stop
         style="stop-color:#6b95aa;stop-opacity:1;"
         offset="0"
         id="stop6106" />
      <stop
         style="stop-color:#616e81;stop-opacity:1;"
         offset="1"
         id="stop6108" />
    </linearGradient>
    <linearGradient
       id="linearGradient6026">
      <stop
         style="stop-color:#d0b38e;stop-opacity:1;"
         offset="0"
         id="stop6028" />
      <stop
         style="stop-color:#f7d5a8;stop-opacity:1;"
         offset="1"
         id="stop6030" />
    </linearGradient>
    <radialGradient
       inkscape:collect="always"
       xlink:href="#linearGradient6026"
       id="radialGradient6075"
       gradientUnits="userSpaceOnUse"
       gradientTransform="matrix(0.70558175,0.04188691,-0.04623138,0.77876304,58.862494,10.114182)"
       cx="189.10876"
       cy="69.902245"
       fx="189.10876"
       fy="69.902245"
       r="13.39286" />
    <radialGradient
       inkscape:collect="always"
       xlink:href="#linearGradient6026"
       id="radialGradient6100"
       gradientUnits="userSpaceOnUse"
       gradientTransform="matrix(0.81971258,0.0153978,-0.01599841,0.8494851,-103.9892,6.4201083)"
       cx="188.48051"
       cy="68.222534"
       fx="188.48051"
       fy="68.222534"
       r="13.39286" />
    <radialGradient
       inkscape:collect="always"
       xlink:href="#linearGradient6104"
       id="radialGradient6110"
       cx="47.857155"
       cy="50.899033"
       fx="47.857155"
       fy="50.899033"
       r="50"
       gradientTransform="matrix(1.5720107,0.00267595,-0.00202307,1.188464,-27.271831,-10.823403)"
       gradientUnits="userSpaceOnUse" />
  </defs>
  <sodipodi:namedview
     id="base"
     pagecolor="#ffffff"
     bordercolor="#666666"
     borderopacity="1.0"
     inkscape:pageopacity="0.0"
     inkscape:pageshadow="2"
     inkscape:zoom="3.959798"
     inkscape:cx="64.197195"
     inkscape:cy="40.380519"
     inkscape:document-units="px"
     inkscape:current-layer="layer28"
     showgrid="false"
     inkscape:window-width="1366"
     inkscape:window-height="720"
     inkscape:window-x="0"
     inkscape:window-y="0"
     inkscape:window-maximized="1" />
  <metadata
     id="metadata5484">
    <rdf:RDF>
      <cc:Work
         rdf:about="">
        <dc:format>image/svg+xml</dc:format>
        <dc:type
           rdf:resource="http://purl.org/dc/dcmitype/StillImage" />
        <dc:title></dc:title>
      </cc:Work>
    </rdf:RDF>
  </metadata>
  <g
     inkscape:label="circulo"
     inkscape:groupmode="layer"
     id="layer1"
     transform="translate(0,-952.36218)"
     style="display:inline" />
  <g
     inkscape:groupmode="layer"
     id="layer30"
     inkscape:label="cuello"
     style="display:inline" />
  <g
     inkscape:groupmode="layer"
     id="layer31"
     inkscape:label="borde camiseta"
     style="display:inline" />
  <g
     inkscape:groupmode="layer"
     id="layer32"
     inkscape:label="camiseta"
     style="display:inline" />
  <g
     inkscape:groupmode="layer"
     id="layer29"
     inkscape:label="cara"
     style="display:inline" />
  <g
     inkscape:groupmode="layer"
     id="layer28"
     inkscape:label="pelo"
     style="display:inline">
    <path
       inkscape:connector-curvature="0"
       style="fill:#5fd1d1;fill-opacity:1;stroke:none;display:inline"
       d="m 37.052642,70.354781 c -0.06102,-0.0054 -0.186533,0.03139 -0.390977,0.0902 -0.613332,0.176405 -1.822797,0.610957 -3.428571,1.17258 -2.141036,0.748831 -4.96256,1.720409 -7.93985,2.555622 -2.232965,0.62641 -3.656797,1.075159 -4.631579,1.443175 -0.649855,0.245344 -1.093457,0.45028 -1.473684,0.661456 -0.570351,0.316764 -0.978777,0.630911 -1.593985,1.052315 -0.199112,0.13639 -0.389717,0.313844 -0.571429,0.511124 -0.183762,0.202278 -0.379717,0.448076 -0.541353,0.691521 -0.969798,1.460674 -1.525635,3.476723 -1.593985,3.818401 -0.04158,0.207984 -0.05505,0.88107 -0.06015,1.563439 -9.62e-4,0.114356 5.39e-4,0.216689 0,0.330728 -9.62e-4,0.525694 -0.0019,1.088849 0,1.262778 C 23.863773,94.458093 36.259437,100 49.984973,100 c 13.794849,0 26.290565,-5.582299 35.338346,-14.612146 0.0029,-0.286553 0.01809,-0.28755 0,-0.721588 -0.04292,-1.030839 -0.167564,-2.413882 -0.511278,-3.788334 -0.08594,-0.343613 -0.235655,-0.670035 -0.390977,-0.992183 -0.782196,-1.622309 -2.306705,-2.916824 -3.428572,-3.607937 -0.444728,-0.276993 -0.809585,-0.450382 -1.052631,-0.511125 -0.486092,-0.121485 -4.565375,-1.449503 -8.571429,-2.736019 -4.006053,-1.286517 -7.944142,-2.550788 -8.180451,-2.585689 0.483349,0.848296 0.788538,1.76048 0.962406,2.675887 0.08691,0.457703 0.160058,0.925675 0.180451,1.383043 0.0128,0.229087 0.0029,0.464758 0,0.691521 -0.03773,1.57986 -0.446845,3.076333 -1.052632,4.269393 -0.0038,0.0078 0.0038,0.02225 0,0.03007 -0.170374,0.332866 -0.372066,0.654071 -0.571428,0.932051 -0.300752,0.346297 -0.592005,0.651786 -0.902256,0.962116 -0.314466,0.31519 -0.638864,0.623028 -0.962406,0.901985 -0.636516,0.548807 -1.282897,1.023725 -1.954887,1.443175 -1.343981,0.838899 -2.755099,1.43351 -4.210526,1.803968 -0.727714,0.185229 -1.449288,0.314386 -2.195489,0.39086 -0.759396,0.08505 -1.507186,0.100395 -2.285714,0.0902 -0.768664,-0.01006 -1.562264,-0.05722 -2.345865,-0.150331 -0.783601,-0.09311 -1.581098,-0.224422 -2.37594,-0.39086 -0.794841,-0.166437 -1.522988,-0.377203 -2.195489,-0.631389 -1.344991,-0.508373 -2.450391,-1.173721 -3.368421,-1.894167 -0.229813,-0.179675 -0.455352,-0.355387 -0.661654,-0.541191 -1.854672,-1.675177 -2.764771,-3.549416 -3.24812,-4.539988 -0.0537,-0.110063 -0.108819,-0.233459 -0.150376,-0.360794 -0.12468,-0.382003 -0.18535,-0.828127 -0.210526,-1.32291 -0.100697,-1.979131 0.511278,-4.60871 1.413533,-5.832832 z"
       id="path6046" />
    <path
       inkscape:connector-curvature="0"
       style="fill:url(#radialGradient6110);fill-opacity:1;stroke:none;display:inline"
       d="M 49.984973,5.125e-8 C 22.364806,5.125e-8 1.0680625e-5,22.388136 1.0680625e-5,50 c 0,13.890451 5.679052019375,26.447887 14.827067319375,35.508118 -0.0038,-0.438965 -0.0231,-2.740977 0.06015,-3.156945 0.04552,-0.227786 0.322454,-1.199555 0.781955,-2.254961 0.229755,-0.527703 0.488767,-1.076548 0.81203,-1.56344 0.323262,-0.486891 0.702643,-0.92171 1.112782,-1.202645 0.820278,-0.561872 1.253389,-0.942658 2.225564,-1.383043 0.972174,-0.440385 2.496394,-0.938689 5.473684,-1.773903 5.954589,-1.670427 11.271189,-3.861389 11.759398,-3.8184 -0.601503,0.816081 -1.067664,2.273215 -1.293233,3.728202 -0.112784,0.727493 -0.153869,1.44492 -0.1203,2.10463 0.03359,0.65971 0.146083,1.243449 0.360902,1.683704 0.214828,0.440254 0.498661,1.052584 0.932331,1.743837 0.433669,0.691253 1.008592,1.467872 1.744361,2.224894 0.735769,0.757023 1.64581,1.497134 2.766917,2.134697 1.121107,0.637563 2.440382,1.170432 4.030075,1.503307 1.589693,0.332875 3.184477,0.521057 4.721805,0.541191 1.537328,0.02014 3.025775,-0.1106 4.481203,-0.481059 1.455427,-0.370458 2.866545,-0.965069 4.210526,-1.803968 1.343981,-0.8389 2.616541,-1.922086 3.819549,-3.307276 0.408166,-0.56911 0.780742,-1.268684 1.052632,-2.044498 0.271889,-0.775815 0.463475,-1.63431 0.541353,-2.525557 0.07786,-0.891246 0.02348,-1.820612 -0.150376,-2.736019 -0.173868,-0.915407 -0.479057,-1.827591 -0.962406,-2.675887 0.472609,0.0698 15.779696,5.078737 16.75188,5.321708 0.486092,0.121486 1.517618,0.713857 2.526316,1.623572 0.504348,0.454857 1.00121,0.972179 1.413533,1.563439 0.412324,0.591261 0.760474,1.237007 0.932331,1.924234 0.343714,1.374452 0.468317,2.757495 0.511278,3.788334 0.01809,0.434038 0.0029,0.435035 0,0.721588 C 94.391099,76.338055 100.00001,63.821166 100.00001,50 100.00001,22.388136 77.605141,5.125e-8 49.984973,5.125e-8 z"
       id="path6038" />
    <path
       style="fill:url(#radialGradient6100);fill-opacity:1;stroke:none;display:inline"
       d="m 39.944153,59.58251 0.08594,9.921828 -2.234159,1.374453 -0.558541,6.485697 3.265308,4.939438 7.647692,2.491195 7.175084,-0.558372 5.026849,-3.350226 2.663805,-4.595826 -0.25779,-4.810583 -2.749729,-2.10463 0.04292,-8.762134 z"
       id="path6014"
       inkscape:connector-curvature="0" />
    <path
       style="fill:#56bdbc;fill-opacity:1;stroke:none;display:inline"
       d="m 40.030086,69.418435 c -0.558542,0.816081 -2.062301,3.350227 -2.105263,3.994502 -0.04292,0.644275 0.08594,4.20926 1.503759,5.454858 1.417826,1.245598 5.327601,5.197148 9.538127,5.111245 4.210527,-0.08591 8.163273,-1.159694 10.612249,-4.123357 2.448977,-2.963663 1.632655,-1.159694 2.577872,-5.927326 0.128895,-1.030839 -2.062301,-4.509922 -2.062301,-4.509922 l 3.093452,0.901985 1.460798,2.190533 -0.515581,9.105747 -11.127819,6.31389 -15.767993,-3.307276 -2.878624,-8.504424 0.923737,-4.574349 1.718587,-1.18117 z"
       id="path6018"
       inkscape:connector-curvature="0" />
    <path
       style="fill:#f7d5a8;fill-opacity:1;stroke:none;display:inline"
       d="m 34.424543,41.310565 c -1.093698,0.03037 -1.48865,-0.121486 -1.640547,0.546685 -0.151906,0.668171 -0.303812,2.672682 0,3.371225 0.303803,0.698542 0.941792,4.039395 1.124081,4.343109 0.18228,0.303713 1.762069,3.067511 2.187395,3.340853 0.425326,0.273343 0.972174,0.364457 1.154464,0.303714 0.212663,0.668171 1.678522,6.415957 2.832986,7.630813 1.154454,1.214856 3.040616,5.350098 3.298397,5.779615 0.25779,0.429516 1.245979,2.834807 3.179375,3.350228 1.933407,0.515419 5.843181,0.257709 6.616542,0.171806 0.77337,-0.08591 1.675625,-0.558371 2.577881,-2.061679 0.902256,-1.503307 4.253488,-7.172923 4.468307,-7.516536 0.214828,-0.343613 1.550908,-3.056129 2.603048,-7.35731 0.398812,0.03343 0.793764,0.15492 1.553276,-0.847336 0.759511,-1.002256 1.731686,-2.915653 2.187394,-4.616451 0.455709,-1.700799 1.093698,-3.340854 0.850652,-5.01128 C 67.174748,41.067594 66.810188,41.409272 66.445619,41.257415 66.08105,41.105558 64.562027,31.105776 64.562027,31.105776 L 55.964335,30.073149 39.170792,28.786187 33.413545,33.59677 z"
       id="path6010"
       inkscape:connector-curvature="0"
       sodipodi:nodetypes="ccccscscsssccssssccccc" />
    <path
       style="fill:#44403d;fill-opacity:1;stroke:none"
       d="m 36.206245,46.095696 c 0,0 -0.343723,-13.100249 -0.171867,-13.40091 l 3.351243,3.865647 2.148224,-6.099133 17.056924,7.86015 1.890445,-2.577098 0.25779,0.773129 3.351233,-4.037454 c 0,0 0.214818,12.713685 -0.214819,13.572717 0.644465,-0.386564 2.878624,-4.595824 3.265299,-6.270938 0.386685,-1.675114 1.589693,-7.172924 1.50376,-7.86015 -0.08594,-0.687226 -1.589683,-6.270939 -3.995698,-8.504424 -2.406016,-2.233485 -8.120301,-7.645391 -14.951671,-6.872262 -6.83136,0.77313 -6.015038,0.558371 -11.3856,4.424019 -5.370572,3.865647 -6.487656,9.062795 -6.57358,9.664119 -0.08594,0.601322 -0.171856,2.663001 0.128895,4.166308 0.300752,1.503307 1.117075,5.411906 1.331903,5.970278 0.214819,0.558371 2.620843,5.068293 3.007519,5.326002 z"
       id="path5498"
       inkscape:connector-curvature="0" />
  </g>
</svg>
