<?xml version="1.0" encoding="UTF-8" standalone="no"?>
<!-- Created with Inkscape (http://www.inkscape.org/) -->

<svg
   xmlns:dc="http://purl.org/dc/elements/1.1/"
   xmlns:cc="http://creativecommons.org/ns#"
   xmlns:rdf="http://www.w3.org/1999/02/22-rdf-syntax-ns#"
   xmlns:svg="http://www.w3.org/2000/svg"
   xmlns="http://www.w3.org/2000/svg"
   xmlns:xlink="http://www.w3.org/1999/xlink"
   xmlns:sodipodi="http://sodipodi.sourceforge.net/DTD/sodipodi-0.dtd"
   xmlns:inkscape="http://www.inkscape.org/namespaces/inkscape"
   width="50"
   height="50"
   id="svg2"
   version="1.1"
   inkscape:version="0.48.5 r10040"
   sodipodi:docname="ico1.svg">
  <defs
     id="defs4">
    <linearGradient
       id="linearGradient3764">
      <stop
         style="stop-color:#e9dbce;stop-opacity:1;"
         offset="0"
         id="stop3766" />
      <stop
         id="stop3772"
         offset="0.5"
         style="stop-color:#ebbae0;stop-opacity:1;" />
      <stop
         style="stop-color:#b984ce;stop-opacity:1;"
         offset="1"
         id="stop3768" />
    </linearGradient>
    <linearGradient
       id="linearGradient3752">
      <stop
         style="stop-color:#9b4ba0;stop-opacity:1;"
         offset="0"
         id="stop3754" />
      <stop
         id="stop3760"
         offset="0.5"
         style="stop-color:#73217b;stop-opacity:1;" />
      <stop
         style="stop-color:#600661;stop-opacity:1;"
         offset="1"
         id="stop3756" />
    </linearGradient>
    <radialGradient
       inkscape:collect="always"
       xlink:href="#linearGradient3752"
       id="radialGradient3758"
       cx="52.654202"
       cy="50.123718"
       fx="52.654202"
       fy="50.123718"
       r="48.293676"
       gradientUnits="userSpaceOnUse" />
    <radialGradient
       inkscape:collect="always"
       xlink:href="#linearGradient3764"
       id="radialGradient3770"
       cx="25.023461"
       cy="1026.5052"
       fx="25.023461"
       fy="1026.5052"
       r="18.463989"
       gradientTransform="matrix(1,0,0,0.79579499,0,209.61752)"
       gradientUnits="userSpaceOnUse" />
    <linearGradient
       inkscape:collect="always"
       xlink:href="#linearGradient3764"
       id="linearGradient3782"
       x1="4.3605256"
       y1="50.123718"
       x2="100.94788"
       y2="50.123718"
       gradientUnits="userSpaceOnUse" />
  </defs>
  <sodipodi:namedview
     id="base"
     pagecolor="#ffffff"
     bordercolor="#666666"
     borderopacity="1.0"
     inkscape:pageopacity="0.0"
     inkscape:pageshadow="2"
     inkscape:zoom="3.7900924"
     inkscape:cx="-13.356215"
     inkscape:cy="17.831514"
     inkscape:document-units="px"
     inkscape:current-layer="layer1"
     showgrid="false"
     inkscape:window-width="1366"
     inkscape:window-height="705"
     inkscape:window-x="-8"
     inkscape:window-y="-8"
     inkscape:window-maximized="1" />
  <metadata
     id="metadata7">
    <rdf:RDF>
      <cc:Work
         rdf:about="">
        <dc:format>image/svg+xml</dc:format>
        <dc:type
           rdf:resource="http://purl.org/dc/dcmitype/StillImage" />
        <dc:title></dc:title>
      </cc:Work>
    </rdf:RDF>
  </metadata>
  <g
     inkscape:label="Capa 1"
     inkscape:groupmode="layer"
     id="layer1"
     transform="translate(0,-1002.3622)">
    <path
       sodipodi:type="arc"
       style="fill:url(#radialGradient3758);fill-opacity:1;fill-rule:nonzero;stroke:url(#linearGradient3782);stroke-width:2.89570200000000000;stroke-linecap:square;stroke-linejoin:miter;stroke-miterlimit:4;stroke-opacity:1;stroke-dasharray:none;stroke-dashoffset:0"
       id="path2985"
       sodipodi:cx="52.654202"
       sodipodi:cy="50.123718"
       sodipodi:rx="46.845825"
       sodipodi:ry="46.845825"
       d="m 99.500027,50.123718 c 0,25.872235 -20.973591,46.845825 -46.845825,46.845825 -25.872235,0 -46.8458257,-20.97359 -46.8458257,-46.845825 0,-25.872235 20.9735907,-46.8458249 46.8458257,-46.8458249 25.872234,0 46.845825,20.9735899 46.845825,46.8458249 z"
       transform="matrix(0.51800911,0,0,0.5180091,-2.2753557,1001.3977)" />
    <path
       id="path3759"
       d="m 38.216746,1028.7385 v 10.9944 q 0,0.5955 -0.4352,1.0307 -0.43519,0.4352 -1.03072,0.4352 h -8.79553 v -8.7955 h -5.86369 v 8.7955 h -8.79552 q -0.59553,0 -1.03073,-0.4352 -0.43519,-0.4352 -0.43519,-1.0307 v -10.9944 q 0,-0.023 0.0115,-0.069 0.0115,-0.046 0.0115,-0.069 l 13.17039,-10.857 13.17038,10.857 q 0.0229,0.046 0.0229,0.1375 z m 5.10782,-1.5805 -1.42011,1.695 q -0.18324,0.2062 -0.48101,0.252 h -0.0687 q -0.29777,0 -0.48101,-0.1604 l -15.85027,-13.2162 -15.8502803,13.2162 q -0.27485,0.1833 -0.54972,0.1604 -0.29776,-0.046 -0.48101,-0.252 l -1.4201,-1.695 q -0.18324,-0.229 -0.16034,-0.5383 0.0229,-0.3092 0.25196,-0.4924 l 16.4687003,-13.7201 q 0.73297,-0.5955 1.74079,-0.5955 1.00782,0 1.74078,0.5955 l 5.58882,4.6726 v -4.4665 q 0,-0.3206 0.20615,-0.5268 0.20614,-0.2061 0.52682,-0.2061 h 4.39776 q 0.32067,0 0.52681,0.2061 0.20615,0.2062 0.20615,0.5268 v 9.3453 l 5.0162,4.1687 q 0.22905,0.1832 0.25195,0.4924 0.0229,0.3093 -0.16033,0.5383 z"
       inkscape:connector-curvature="0"
       style="fill:url(#radialGradient3770);fill-opacity:1" />
  </g>
</svg>
