<?xml version="1.0" encoding="UTF-8" standalone="no"?>
<!-- Created with Inkscape (http://www.inkscape.org/) -->

<svg
   xmlns:dc="http://purl.org/dc/elements/1.1/"
   xmlns:cc="http://creativecommons.org/ns#"
   xmlns:rdf="http://www.w3.org/1999/02/22-rdf-syntax-ns#"
   xmlns:svg="http://www.w3.org/2000/svg"
   xmlns="http://www.w3.org/2000/svg"
   xmlns:sodipodi="http://sodipodi.sourceforge.net/DTD/sodipodi-0.dtd"
   xmlns:inkscape="http://www.inkscape.org/namespaces/inkscape"
   width="50"
   height="50"
   id="svg2"
   version="1.1"
   inkscape:version="0.48.5 r10040"
   sodipodi:docname="ico2.svg">
  <defs
     id="defs4" />
  <sodipodi:namedview
     id="base"
     pagecolor="#ffffff"
     bordercolor="#666666"
     borderopacity="1.0"
     inkscape:pageopacity="0.0"
     inkscape:pageshadow="2"
     inkscape:zoom="5.36"
     inkscape:cx="-10.848493"
     inkscape:cy="31.785378"
     inkscape:document-units="px"
     inkscape:current-layer="layer1"
     showgrid="false"
     inkscape:window-width="1366"
     inkscape:window-height="720"
     inkscape:window-x="0"
     inkscape:window-y="0"
     inkscape:window-maximized="1" />
  <metadata
     id="metadata7">
    <rdf:RDF>
      <cc:Work
         rdf:about="">
        <dc:format>image/svg+xml</dc:format>
        <dc:type
           rdf:resource="http://purl.org/dc/dcmitype/StillImage" />
        <dc:title />
      </cc:Work>
    </rdf:RDF>
  </metadata>
  <g
     inkscape:label="Capa 1"
     inkscape:groupmode="layer"
     id="layer1"
     transform="translate(0,-1002.3622)">
    <path
       sodipodi:type="arc"
       style="fill:#560357;fill-opacity:1;fill-rule:nonzero;stroke:#c1ade5;stroke-width:2.89570200000000000;stroke-linecap:square;stroke-linejoin:miter;stroke-miterlimit:4;stroke-opacity:1;stroke-dasharray:none;stroke-dashoffset:0"
       id="path2985"
       sodipodi:cx="52.654202"
       sodipodi:cy="50.123718"
       sodipodi:rx="46.845825"
       sodipodi:ry="46.845825"
       d="m 99.500027,50.123718 c 0,25.872235 -20.973591,46.845825 -46.845825,46.845825 -25.872235,0 -46.8458257,-20.97359 -46.8458257,-46.845825 0,-25.872235 20.9735907,-46.8458249 46.8458257,-46.8458249 25.872234,0 46.845825,20.9735899 46.845825,46.8458249 z"
       transform="matrix(0.51800911,0,0,0.5180091,-2.2753557,1001.3977)" />
    <g
       id="g3769"
       transform="matrix(0.08859556,0,0,0.08859556,2.6697286,1004.5549)"
       style="fill:#c1ade5;fill-opacity:1;stroke:none;stroke-opacity:1">
      <path
         id="path3771"
         d="m 349.2,334.8 c 11.3,3.9 -11.2,-3.9 0,0 l 0,0 z"
         inkscape:connector-curvature="0"
         style="fill:#c1ade5;fill-opacity:1;stroke:none;stroke-opacity:1" />
      <path
         id="path3773"
         d="m 349.2,334.8 c -13.5,-4.7 -28.1,-5 -41.6,-9.7 -4.1,-1.4 -12.2,-3.1 -13.9,-7.8 -1.6,-4.6 -1.6,-10 -1.9,-14.8 -0.2,-3.8 -0.3,-7.6 -0.3,-11.4 0,-2.5 6.4,-7.8 7.8,-10.1 5.4,-9 5.9,-21.1 6.9,-31.3 8.7,2.4 9.8,-13.7 11.3,-18.6 1.1,-3.4 7.8,-26.8 -2.6,-23.6 2.5,-4.4 3.5,-9.8 4.2,-14.7 2,-12.8 2.8,-26.8 -1.1,-39.3 -8.1,-26 -33,-40.6 -59.3,-41.4 -26.7,-0.9 -53.5,11.9 -63.5,37.8 -4.8,12.6 -4.4,26.3 -2.8,39.5 0.7,6 1.7,12.7 4.7,18.1 -9.7,-2.9 -4.5,17.7 -3.4,21.3 1.6,5.1 3,23.4 12.1,20.9 0.8,8.1 1.7,16.4 3.9,24.3 1.5,5.3 4.6,9.8 8.2,13.9 1.8,2 2.7,2.2 2.6,4.8 -0.1,7.8 0.1,16.2 -1.9,23.8 -2,7.6 -18.7,10.8 -25.4,12.2 -18,3.7 -34.6,5.4 -49.6,16.6 -17.5,12.9 -26.6,33 -26.6,54.7 83.3,0 166.6,0 249.9,0 9.4,0 18.7,0 28.1,0 0,-29.5 -17.8,-55.5 -45.8,-65.2 z"
         inkscape:connector-curvature="0"
         style="fill:#c1ade5;fill-opacity:1;stroke:none;stroke-opacity:1" />
      <path
         id="path3775"
         d="m 143.3,322.5 c 0.6,-0.3 1.2,-0.6 1.6,-0.8 -0.3,0.1 -0.6,0.3 -0.8,0.4 -0.3,0.1 -0.5,0.2 -0.8,0.4 z"
         inkscape:connector-curvature="0"
         style="fill:#c1ade5;fill-opacity:1;stroke:none;stroke-opacity:1" />
      <path
         id="path3777"
         d="m 143.3,322.5 c -3.4,1.7 -7.5,3.8 0.8,-0.4 3,-1.5 2.4,-1.2 0.8,-0.4 6.8,-3.2 14.1,-4 21.4,-4.7 2.8,-0.3 4.1,-2.2 2,-4.9 -4,-5.1 -17.8,-6.1 -23.6,-8.4 -3.6,-1.4 -4.6,-2.7 -4.9,-6.7 -0.1,-1.8 -1.1,-9.8 0.3,-11.1 1,-1 7.3,-0.6 8.7,-0.8 5.7,-0.7 11.5,-1.9 16.9,-4 2.3,-0.9 4.5,-2 6.5,-3.4 2.4,-1.8 -1.8,-6.2 -2.9,-8.6 -3.4,-7.5 -4.9,-15.7 -5.4,-23.9 -1,-16.1 1.5,-32.3 -1.5,-48.3 -4.5,-24.5 -23.4,-36.8 -47.5,-36.8 -14.9,0 -29.6,5.1 -37.9,18.1 -9.2,14.3 -8.7,32.1 -8.2,48.4 0.3,9.3 0.7,18.7 -0.6,28 -0.6,4 -1.5,7.9 -2.9,11.7 -1.1,2.9 -6.7,10.1 -4.5,11.6 8.3,5.9 22.3,7.9 32.3,7.1 0.3,4.9 1.2,11.2 -0.6,15.8 -2.8,7.2 -23.7,9.1 -30,11.2 C 45,317.8 32,332 32,352 c 18.3,0 36.5,0 54.8,0 8.2,0 16.4,0 24.7,0 1.3,0 6.3,-9.3 7.7,-10.8 6.8,-7.5 15.1,-14 24.1,-18.7 z"
         inkscape:connector-curvature="0"
         style="fill:#c1ade5;fill-opacity:1;stroke:none;stroke-opacity:1" />
      <path
         id="path3779"
         d="m 449.3,311.9 c -8.1,-2.6 -23.7,-3.4 -29.5,-10.4 -2.9,-3.5 -1.3,-12.4 -1,-16.6 4.4,0.4 9.2,-0.3 13.7,-0.9 4.1,-0.6 8.1,-1.4 12,-2.8 1.8,-0.7 3.6,-1.4 5.3,-2.4 3.9,-2.3 2.1,-2.7 0.1,-6.1 -10.9,-18.3 -6,-41.5 -6.5,-61.6 -0.4,-16.7 -4.8,-35 -20,-44.4 -13.7,-8.5 -34,-8.8 -48.7,-2.8 -42.4,17 -17.4,73.2 -31.9,105.4 -2.5,5.4 -6.1,7.3 0.2,10.5 3.5,1.8 7.3,3 11.1,3.9 5.8,1.4 11.8,2.2 17.8,2.4 1,0 0.3,12.6 0,13.9 -1.1,4.9 -11.8,6.3 -15.8,7.4 -4.1,1.1 -10.9,1.4 -12.9,5.7 -3,6.4 9.9,4.8 13.1,5.4 10.3,1.9 19.4,7.6 27.4,14.1 6,4.9 14.1,11.5 16.3,19.5 26.7,0 53.5,0 80.2,0 C 480,332 466.9,317.7 449.3,311.9 z"
         inkscape:connector-curvature="0"
         style="fill:#c1ade5;fill-opacity:1;stroke:none;stroke-opacity:1" />
    </g>
  </g>
</svg>
