<?xml version="1.0" encoding="UTF-8" standalone="no"?>
<!-- Created with Inkscape (http://www.inkscape.org/) -->

<svg
   xmlns:dc="http://purl.org/dc/elements/1.1/"
   xmlns:cc="http://creativecommons.org/ns#"
   xmlns:rdf="http://www.w3.org/1999/02/22-rdf-syntax-ns#"
   xmlns:svg="http://www.w3.org/2000/svg"
   xmlns="http://www.w3.org/2000/svg"
   xmlns:xlink="http://www.w3.org/1999/xlink"
   xmlns:sodipodi="http://sodipodi.sourceforge.net/DTD/sodipodi-0.dtd"
   xmlns:inkscape="http://www.inkscape.org/namespaces/inkscape"
   width="50"
   height="50"
   id="svg2"
   version="1.1"
   inkscape:version="0.48.5 r10040"
   sodipodi:docname="ico4_hover.svg">
  <defs
     id="defs4">
    <linearGradient
       id="linearGradient3764">
      <stop
         style="stop-color:#f6f3fb;stop-opacity:1;"
         offset="0"
         id="stop3766" />
      <stop
         id="stop3772"
         offset="0.5"
         style="stop-color:#e0d6f2;stop-opacity:1;" />
      <stop
         style="stop-color:#c1ade5;stop-opacity:1;"
         offset="1"
         id="stop3768" />
    </linearGradient>
    <linearGradient
       id="linearGradient3752">
      <stop
         style="stop-color:#845bcb;stop-opacity:1;"
         offset="0"
         id="stop3754" />
      <stop
         id="stop3760"
         offset="0.5"
         style="stop-color:#600661;stop-opacity:1;" />
      <stop
         style="stop-color:#560357;stop-opacity:1;"
         offset="1"
         id="stop3756" />
    </linearGradient>
    <radialGradient
       inkscape:collect="always"
       xlink:href="#linearGradient3752"
       id="radialGradient3758"
       cx="52.654202"
       cy="50.123718"
       fx="52.654202"
       fy="50.123718"
       r="48.293676"
       gradientUnits="userSpaceOnUse" />
    <linearGradient
       inkscape:collect="always"
       xlink:href="#linearGradient3764"
       id="linearGradient3782"
       x1="4.3605256"
       y1="50.123718"
       x2="100.94788"
       y2="50.123718"
       gradientUnits="userSpaceOnUse" />
    <radialGradient
       inkscape:collect="always"
       xlink:href="#linearGradient3764"
       id="radialGradient3859"
       cx="25.6763"
       cy="1025.5616"
       fx="25.6763"
       fy="1025.5616"
       r="15.788238"
       gradientTransform="matrix(1,0,0,0.95894682,0,42.102573)"
       gradientUnits="userSpaceOnUse" />
    <radialGradient
       inkscape:collect="always"
       xlink:href="#linearGradient3764"
       id="radialGradient3912"
       cx="256.10001"
       cy="256.02783"
       fx="256.10001"
       fy="256.02783"
       r="224.10001"
       gradientTransform="matrix(1,0,0,0.64244615,0,91.543732)"
       gradientUnits="userSpaceOnUse" />
    <radialGradient
       inkscape:collect="always"
       xlink:href="#linearGradient3764"
       id="radialGradient3945"
       cx="24.47756"
       cy="1028.8466"
       fx="24.47756"
       fy="1028.8466"
       r="15.50456"
       gradientTransform="translate(0,6.6357681e-4)"
       gradientUnits="userSpaceOnUse" />
  </defs>
  <sodipodi:namedview
     id="base"
     pagecolor="#ffffff"
     bordercolor="#666666"
     borderopacity="1.0"
     inkscape:pageopacity="0.0"
     inkscape:pageshadow="2"
     inkscape:zoom="5.3600001"
     inkscape:cx="-34.872681"
     inkscape:cy="21.829301"
     inkscape:document-units="px"
     inkscape:current-layer="layer1"
     showgrid="false"
     inkscape:window-width="1366"
     inkscape:window-height="720"
     inkscape:window-x="0"
     inkscape:window-y="0"
     inkscape:window-maximized="1" />
  <metadata
     id="metadata7">
    <rdf:RDF>
      <cc:Work
         rdf:about="">
        <dc:format>image/svg+xml</dc:format>
        <dc:type
           rdf:resource="http://purl.org/dc/dcmitype/StillImage" />
        <dc:title />
      </cc:Work>
    </rdf:RDF>
  </metadata>
  <g
     inkscape:label="Capa 1"
     inkscape:groupmode="layer"
     id="layer1"
     transform="translate(0,-1002.3622)">
    <path
       sodipodi:type="arc"
       style="fill:url(#radialGradient3758);fill-opacity:1;fill-rule:nonzero;stroke:url(#linearGradient3782);stroke-width:2.89570200000000000;stroke-linecap:square;stroke-linejoin:miter;stroke-miterlimit:4;stroke-opacity:1;stroke-dasharray:none;stroke-dashoffset:0"
       id="path2985"
       sodipodi:cx="52.654202"
       sodipodi:cy="50.123718"
       sodipodi:rx="46.845825"
       sodipodi:ry="46.845825"
       d="m 99.500027,50.123718 c 0,25.872235 -20.973591,46.845825 -46.845825,46.845825 -25.872235,0 -46.8458257,-20.97359 -46.8458257,-46.845825 0,-25.872235 20.9735907,-46.8458249 46.8458257,-46.8458249 25.872234,0 46.845825,20.9735899 46.845825,46.8458249 z"
       transform="matrix(0.51800911,0,0,0.5180091,-2.2753557,1001.3977)" />
    <path
       id="path3845"
       d="m 18.275737,1038.1494 c -1.713198,0 -3.08535,1.3876 -3.08535,3.1009 0,1.7132 1.372152,3.1009 3.08535,3.1009 1.713248,0 3.10091,-1.3877 3.10091,-3.1009 0,-1.7133 -1.387662,-3.1009 -3.10091,-3.1009 z M 8.973,1013.3421 v 3.1009 h 3.10091 l 5.573833,11.7601 -2.092874,3.7989 c -0.240384,0.4498 -0.379984,0.9533 -0.379984,1.496 0,1.7133 1.387654,3.1009 3.100852,3.1009 h 18.605475 v -3.1009 H 18.934736 c -0.217307,0 -0.38761,-0.1703 -0.38761,-0.3876 0,-0.07 0.01552,-0.1317 0.04657,-0.1862 l 1.387719,-2.5271 h 11.550412 c 1.162845,0 2.178881,-0.6435 2.713365,-1.597 l 5.543123,-10.0625 c 0.124156,-0.2169 0.193805,-0.4728 0.193805,-0.7441 0,-0.8604 -0.69801,-1.5505 -1.550455,-1.5505 H 15.508298 l -1.473245,-3.1009 H 8.973 z m 24.807295,24.8073 c -1.713191,0 -3.08571,1.3876 -3.08571,3.1009 0,1.7132 1.372519,3.1009 3.08571,3.1009 1.713255,0 3.100917,-1.3877 3.100917,-3.1009 0,-1.7133 -1.387662,-3.1009 -3.100917,-3.1009 z"
       inkscape:connector-curvature="0"
       style="fill:url(#radialGradient3945);fill-opacity:1.0" />
  </g>
</svg>
