<?xml version="1.0" encoding="UTF-8" standalone="no"?>
<!-- Created with Inkscape (http://www.inkscape.org/) -->

<svg
   xmlns:dc="http://purl.org/dc/elements/1.1/"
   xmlns:cc="http://creativecommons.org/ns#"
   xmlns:rdf="http://www.w3.org/1999/02/22-rdf-syntax-ns#"
   xmlns:svg="http://www.w3.org/2000/svg"
   xmlns="http://www.w3.org/2000/svg"
   xmlns:sodipodi="http://sodipodi.sourceforge.net/DTD/sodipodi-0.dtd"
   xmlns:inkscape="http://www.inkscape.org/namespaces/inkscape"
   width="50"
   height="50"
   id="svg2"
   version="1.1"
   inkscape:version="0.48.5 r10040"
   sodipodi:docname="ico4.svg">
  <defs
     id="defs4" />
  <sodipodi:namedview
     id="base"
     pagecolor="#ffffff"
     bordercolor="#666666"
     borderopacity="1.0"
     inkscape:pageopacity="0.0"
     inkscape:pageshadow="2"
     inkscape:zoom="3.7900924"
     inkscape:cx="103.42024"
     inkscape:cy="30.761641"
     inkscape:document-units="px"
     inkscape:current-layer="layer1"
     showgrid="false"
     inkscape:window-width="1366"
     inkscape:window-height="705"
     inkscape:window-x="-8"
     inkscape:window-y="-8"
     inkscape:window-maximized="1" />
  <metadata
     id="metadata7">
    <rdf:RDF>
      <cc:Work
         rdf:about="">
        <dc:format>image/svg+xml</dc:format>
        <dc:type
           rdf:resource="http://purl.org/dc/dcmitype/StillImage" />
        <dc:title></dc:title>
      </cc:Work>
    </rdf:RDF>
  </metadata>
  <g
     inkscape:label="Capa 1"
     inkscape:groupmode="layer"
     id="layer1"
     transform="translate(0,-1002.3622)">
    <path
       sodipodi:type="arc"
       style="fill:#560357;fill-opacity:1;fill-rule:nonzero;stroke:#b984ce;stroke-width:2.895702;stroke-linecap:square;stroke-linejoin:miter;stroke-miterlimit:4;stroke-opacity:1;stroke-dasharray:none;stroke-dashoffset:0"
       id="path2985"
       sodipodi:cx="52.654202"
       sodipodi:cy="50.123718"
       sodipodi:rx="46.845825"
       sodipodi:ry="46.845825"
       d="m 99.500027,50.123718 a 46.845825,46.845825 0 1 1 -93.6916507,0 46.845825,46.845825 0 1 1 93.6916507,0 z"
       transform="matrix(0.51800911,0,0,0.5180091,-2.2753557,1001.3977)" />
    <path
       id="path3845"
       d="m 18.276232,1038.1491 c -1.713198,0 -3.08535,1.3876 -3.08535,3.1009 0,1.7132 1.372152,3.1009 3.08535,3.1009 1.713248,0 3.10091,-1.3877 3.10091,-3.1009 0,-1.7133 -1.387662,-3.1009 -3.10091,-3.1009 z m -9.3027371,-24.8073 v 3.1009 h 3.1009101 l 5.573833,11.7601 -2.092874,3.7989 c -0.240384,0.4498 -0.379984,0.9533 -0.379984,1.496 0,1.7133 1.387654,3.1009 3.100852,3.1009 h 18.605475 v -3.1009 H 18.935231 c -0.217307,0 -0.38761,-0.1703 -0.38761,-0.3876 0,-0.07 0.01552,-0.1317 0.04657,-0.1862 l 1.387719,-2.5271 h 11.550412 c 1.162845,0 2.178881,-0.6435 2.713365,-1.597 l 5.543123,-10.0625 c 0.124156,-0.2169 0.193805,-0.4728 0.193805,-0.7441 0,-0.8604 -0.69801,-1.5505 -1.550455,-1.5505 H 15.508793 l -1.473245,-3.1009 H 8.9734949 z m 24.8072951,24.8073 c -1.713191,0 -3.08571,1.3876 -3.08571,3.1009 0,1.7132 1.372519,3.1009 3.08571,3.1009 1.713255,0 3.100917,-1.3877 3.100917,-3.1009 0,-1.7133 -1.387662,-3.1009 -3.100917,-3.1009 z"
       inkscape:connector-curvature="0"
       style="fill:#b984ce;fill-opacity:1" />
  </g>
</svg>
