<?xml version="1.0" encoding="UTF-8" standalone="no"?>
<!-- Created with Inkscape (http://www.inkscape.org/) -->

<svg
   xmlns:dc="http://purl.org/dc/elements/1.1/"
   xmlns:cc="http://creativecommons.org/ns#"
   xmlns:rdf="http://www.w3.org/1999/02/22-rdf-syntax-ns#"
   xmlns:svg="http://www.w3.org/2000/svg"
   xmlns="http://www.w3.org/2000/svg"
   xmlns:sodipodi="http://sodipodi.sourceforge.net/DTD/sodipodi-0.dtd"
   xmlns:inkscape="http://www.inkscape.org/namespaces/inkscape"
   width="45"
   height="45"
   id="svg3754"
   version="1.1"
   inkscape:version="0.48.5 r10040"
   sodipodi:docname="icoalim.svg">
  <defs
     id="defs3756" />
  <sodipodi:namedview
     id="base"
     pagecolor="#ffffff"
     bordercolor="#666666"
     borderopacity="1.0"
     inkscape:pageopacity="0.0"
     inkscape:pageshadow="2"
     inkscape:zoom="7.9195959"
     inkscape:cx="3.7658734"
     inkscape:cy="24.508442"
     inkscape:document-units="px"
     inkscape:current-layer="layer1"
     showgrid="false"
     inkscape:window-width="1366"
     inkscape:window-height="720"
     inkscape:window-x="0"
     inkscape:window-y="0"
     inkscape:window-maximized="1" />
  <metadata
     id="metadata3759">
    <rdf:RDF>
      <cc:Work
         rdf:about="">
        <dc:format>image/svg+xml</dc:format>
        <dc:type
           rdf:resource="http://purl.org/dc/dcmitype/StillImage" />
        <dc:title />
      </cc:Work>
    </rdf:RDF>
  </metadata>
  <g
     inkscape:label="Capa 1"
     inkscape:groupmode="layer"
     id="layer1"
     transform="translate(0,-1007.3622)">
    <path
       style="fill:#b984ce;fill-opacity:1;stroke:none"
       d="m 21.480541,1019.0706 c -5.613774,-2.3626 -11.227537,-0.6298 -13.4106647,4.8044 -2.1831408,5.4347 -0.1559368,12.5233 2.4170457,17.3278 2.572969,4.8043 4.522192,6.2221 5.22392,6.3797 0.701716,0.1573 5.535782,1.7326 7.095175,-1.654 2.183115,3.938 7.407048,1.4964 8.654543,0.3938 1.338051,-1.1828 4.678142,-5.0408 6.081573,-11.893 1.403457,-6.8524 1.247519,-11.3418 -3.742484,-15.1222 -4.990027,-3.7807 -9.668168,-0.1576 -9.98003,-0.079 0.467798,-1.3391 4.444211,-6.6947 5.925649,-7.2462 1.481387,-0.5515 1.481387,-0.5515 1.481387,-0.5515 0,0 -3.898433,-2.5201 -4.288299,-2.1262 -0.38983,0.3935 -5.535783,8.0335 -5.457815,9.7662 z"
       id="path4024"
       inkscape:connector-curvature="0"
       sodipodi:nodetypes="cssscssscscsc" />
    <path
       style="fill:#b984ce;fill-opacity:1;stroke:none"
       d="m 14.022384,1009.3853 c 5.847679,-0.3937 8.420649,6.3797 8.342681,7.4825 -0.07797,1.1026 -8.342681,1.1026 -8.342681,-7.4825 z"
       id="path4026"
       inkscape:connector-curvature="0" />
  </g>
</svg>
