<?xml version="1.0" encoding="UTF-8" standalone="no"?>
<!-- Created with Inkscape (http://www.inkscape.org/) -->

<svg
   xmlns:dc="http://purl.org/dc/elements/1.1/"
   xmlns:cc="http://creativecommons.org/ns#"
   xmlns:rdf="http://www.w3.org/1999/02/22-rdf-syntax-ns#"
   xmlns:svg="http://www.w3.org/2000/svg"
   xmlns="http://www.w3.org/2000/svg"
   xmlns:sodipodi="http://sodipodi.sourceforge.net/DTD/sodipodi-0.dtd"
   xmlns:inkscape="http://www.inkscape.org/namespaces/inkscape"
   width="45"
   height="45"
   id="svg3754"
   version="1.1"
   inkscape:version="0.48.5 r10040"
   sodipodi:docname="icoest.svg">
  <defs
     id="defs3756" />
  <sodipodi:namedview
     id="base"
     pagecolor="#ffffff"
     bordercolor="#666666"
     borderopacity="1.0"
     inkscape:pageopacity="0.0"
     inkscape:pageshadow="2"
     inkscape:zoom="5.6"
     inkscape:cx="-11.390652"
     inkscape:cy="10.294187"
     inkscape:document-units="px"
     inkscape:current-layer="layer1"
     showgrid="false"
     inkscape:window-width="1366"
     inkscape:window-height="720"
     inkscape:window-x="0"
     inkscape:window-y="0"
     inkscape:window-maximized="1" />
  <metadata
     id="metadata3759">
    <rdf:RDF>
      <cc:Work
         rdf:about="">
        <dc:format>image/svg+xml</dc:format>
        <dc:type
           rdf:resource="http://purl.org/dc/dcmitype/StillImage" />
        <dc:title />
      </cc:Work>
    </rdf:RDF>
  </metadata>
  <g
     inkscape:label="Capa 1"
     inkscape:groupmode="layer"
     id="layer1"
     transform="translate(0,-1007.3622)">
    <path
       sodipodi:type="arc"
       style="fill:#b984ce;fill-opacity:1;stroke:#ffffff;stroke-width:0.20000000000000001;stroke-linecap:round;stroke-linejoin:round;stroke-miterlimit:4;stroke-opacity:1;stroke-dasharray:none"
       id="path5142"
       sodipodi:cx="-538.41132"
       sodipodi:cy="-85.309677"
       sodipodi:rx="19.697975"
       sodipodi:ry="19.697975"
       d="m -518.71334,-85.309677 c 0,10.878891 -8.81908,19.697975 -19.69798,19.697975 -10.87889,0 -19.69797,-8.819084 -19.69797,-19.697975 0,-10.878891 8.81908,-19.697973 19.69797,-19.697973 10.8789,0 19.69798,8.819082 19.69798,19.697973 z"
       transform="matrix(0.26325764,0,0,0.26325764,164.70233,1035.2649)" />
    <path
       style="fill:#b984ce;fill-opacity:1;stroke:none"
       d="m 15.40562,1041.1728 0.896454,-12.0381 c -0.480243,1.2806 -4.482259,9.3487 -12.4909011,11.4578 0,0 8.7643801,-14.1307 8.9002121,-14.9004 0.135834,-0.7697 3.033603,-6.1577 9.825249,-6.0672 6.791647,0.091 9.236638,5.0258 9.41775,5.388 0.181109,0.3623 5.886092,13.9456 9.191361,16.3453 -8.783863,-2.3092 -13.006002,-10.5044 -13.322946,-12.5872 0,0 0.37354,11.5005 0.645206,12.0439 4.226325,0.4219 10.085277,2.7911 12.230358,3.8796 2.145079,1.0886 3.521772,2.1131 2.337177,3.1696 -1.184598,1.0566 -2.465242,1.921 -4.834436,1.3767 -2.369193,-0.5443 -11.525807,-2.9135 -14.663386,-3.2976 -3.13758,-0.3842 -7.683871,-1.4728 -7.683871,0.3521 0,1.825 6.339192,2.8175 10.757419,3.0416 4.418226,0.2241 10.414214,0.5335 12.293235,0.4882 -10.246119,2.6974 -21.001622,2.2972 -24.907591,1.913 -3.905966,-0.3842 -8.0040301,-0.9605 -11.0135481,-3.0095 -3.00951598,-2.0491 -0.192096,-4.6104 0.192098,-4.8025 0.384194,-0.1921 5.634837,-2.9454 12.2301601,-2.7533 z"
       id="path5144"
       inkscape:connector-curvature="0"
       sodipodi:nodetypes="cccssscc" />
  </g>
</svg>
