<?xml version="1.0" encoding="UTF-8" standalone="no"?>
<!-- Created with Inkscape (http://www.inkscape.org/) -->

<svg
   xmlns:dc="http://purl.org/dc/elements/1.1/"
   xmlns:cc="http://creativecommons.org/ns#"
   xmlns:rdf="http://www.w3.org/1999/02/22-rdf-syntax-ns#"
   xmlns:svg="http://www.w3.org/2000/svg"
   xmlns="http://www.w3.org/2000/svg"
   xmlns:sodipodi="http://sodipodi.sourceforge.net/DTD/sodipodi-0.dtd"
   xmlns:inkscape="http://www.inkscape.org/namespaces/inkscape"
   width="45"
   height="45"
   id="svg3754"
   version="1.1"
   inkscape:version="0.48.5 r10040"
   sodipodi:docname="icomen.svg">
  <defs
     id="defs3756" />
  <sodipodi:namedview
     id="base"
     pagecolor="#ffffff"
     bordercolor="#666666"
     borderopacity="1.0"
     inkscape:pageopacity="0.0"
     inkscape:pageshadow="2"
     inkscape:zoom="2.8"
     inkscape:cx="-97.936963"
     inkscape:cy="3.3774847"
     inkscape:document-units="px"
     inkscape:current-layer="layer1"
     showgrid="false"
     inkscape:window-width="1366"
     inkscape:window-height="720"
     inkscape:window-x="0"
     inkscape:window-y="0"
     inkscape:window-maximized="1" />
  <metadata
     id="metadata3759">
    <rdf:RDF>
      <cc:Work
         rdf:about="">
        <dc:format>image/svg+xml</dc:format>
        <dc:type
           rdf:resource="http://purl.org/dc/dcmitype/StillImage" />
        <dc:title />
      </cc:Work>
    </rdf:RDF>
  </metadata>
  <g
     inkscape:label="Capa 1"
     inkscape:groupmode="layer"
     id="layer1"
     transform="translate(0,-1007.3622)">
    <path
       sodipodi:nodetypes="cccccccccccccccccc"
       style="fill:#c1ade5;fill-opacity:1;fill-rule:nonzero;stroke:#ffffff;stroke-width:0.52612274999999997;stroke-linecap:round;stroke-linejoin:miter;stroke-miterlimit:4;stroke-opacity:1;stroke-dasharray:none"
       d="m 38.33475,1019.5136 c 3.354049,-0.3208 3.623929,2.3011 1.46871,4.5804 -1.545362,2.0003 -4.506522,-0.1 -6.27881,0.5422 3.717308,0.8855 12.893302,-1.5319 9.707246,5.6634 -1.141421,2.2659 -2.241665,3.2059 -4.45029,2.4126 -2.291839,-0.6592 -2.134635,-0.8094 -6.832365,-1.5049 4.104577,1.5142 12.013924,0.8907 8.07777,6.7264 -4.929046,0.8182 -17.828733,-14.4209 -12.893833,-20.5556 8.659668,-2.9542 7.923012,2.1849 11.201498,2.1355 z m -9.515688,10.4628 c -0.776538,-3.3075 0.612591,3.4337 3.792223,-1.9479 0.307348,-2.151 3.462362,-1.3799 5.375861,-0.2788 -13.870202,1.546 -9.795211,-3.9934 -9.168084,2.2267 z m -0.613188,-5.5866 c 2.573934,-3.0136 2.823851,-2.3197 6.181109,-2.0934 -2.84636,-1.075 -5.657541,-0.6277 -6.181131,2.0939 z"
       id="path4286"
       inkscape:connector-curvature="0" />
    <path
       inkscape:connector-curvature="0"
       id="path4294"
       d="m 8.6713762,1019.9249 c 5.7645418,-5.812 7.2928658,-0.3731 6.2490468,4.5464 1.316333,-4.1746 -1.392593,-13.7892 7.003438,-11.0003 5.434901,2.6695 0.974872,9.3237 0.309519,12.3139 2.095999,-4.6628 3.136299,-15.3499 8.610859,-9.5479 0.870536,8.0333 10.839195,19.2037 1.426993,25.8688 -3.516181,0.2528 -2.738507,-3.9683 -4.879161,-4.9827 1.782944,4.4614 -0.821979,8.8175 -5.647529,7.3009 -1.1e-5,0 -6.6e-5,0 -9.8e-5,0 l 0,10e-5 c -2.003274,-1.3202 -3.706606,-7.7238 -2.715791,-1.6601 -2.439866,1.9614 -3.467179,-2.3649 -4.465803,-4.0827 -1.746902,3.9217 -7.6829333,1.737 -6.1357721,-2.1868 -2.3306376,1.0909 -7.45716446,0.7889 -4.8893544,-4.8031 -5.6146374,-12.063 4.0003983,-1.2002 5.1336527,-11.768 z m 14.7796768,18.8507 c 2.549387,2.4248 -0.861377,-4.6746 -0.914468,-5.7913 -0.02056,-2.1784 0.82614,-1.8603 3.92269,-2.3411 6.030554,-0.3735 4.94231,3.6019 5.36419,8.0733 1.966575,-18.5199 -18.646195,4.0899 -13.314263,-19.2265 -2.968731,5.0238 1.239127,10.3828 -1.924835,14.6092 -3.723353,2.6077 -8.5198435,-5.9042 -10.2031952,-6.1053 0.6307249,3.8657 10.9836142,6.0187 4.7293442,8.057 9.390116,-2.254 4.051522,-4.0199 5.8293,3.7141 -1.594814,-10.6674 5.60379,-12.9909 6.511237,-0.9894 z m -9.638722,-8.199 c -3.431223,-2.5307 -3.314308,-5.6628 -2.812154,-9.376 -1.4831943,3.2358 0.308529,8.5264 2.812681,9.376 z"
       style="fill:#c1ade5;fill-opacity:1;fill-rule:nonzero;stroke:#ffffff;stroke-width:0.20000000000000001;stroke-linecap:round;stroke-linejoin:miter;stroke-miterlimit:4;stroke-opacity:1;stroke-dasharray:none"
       sodipodi:nodetypes="cccccccccccccccccccccccccccccc" />
  </g>
</svg>
