<?xml version="1.0" encoding="UTF-8" standalone="no"?>
<!-- Created with Inkscape (http://www.inkscape.org/) -->

<svg
   xmlns:dc="http://purl.org/dc/elements/1.1/"
   xmlns:cc="http://creativecommons.org/ns#"
   xmlns:rdf="http://www.w3.org/1999/02/22-rdf-syntax-ns#"
   xmlns:svg="http://www.w3.org/2000/svg"
   xmlns="http://www.w3.org/2000/svg"
   xmlns:xlink="http://www.w3.org/1999/xlink"
   xmlns:sodipodi="http://sodipodi.sourceforge.net/DTD/sodipodi-0.dtd"
   xmlns:inkscape="http://www.inkscape.org/namespaces/inkscape"
   width="980"
   height="150"
   id="svg2997"
   version="1.1"
   inkscape:version="0.48.5 r10040"
   sodipodi:docname="sl2.svg"
   inkscape:export-filename="/home/local/COSMOMEDIA/programador4/Desarrollo/cuerpoymente2017/web/svg/sl2.png"
   inkscape:export-xdpi="90"
   inkscape:export-ydpi="90">
  <defs
     id="defs2999">
    <linearGradient
       id="linearGradient4424">
      <stop
         style="stop-color:#d5d5f5;stop-opacity:1;"
         offset="0"
         id="stop4426" />
      <stop
         id="stop4434"
         offset="0.84693879"
         style="stop-color:#777ddd;stop-opacity:1;" />
      <stop
         style="stop-color:#2f32be;stop-opacity:1;"
         offset="1"
         id="stop4428" />
    </linearGradient>
    <linearGradient
       id="linearGradient4416">
      <stop
         style="stop-color:#d2c9f3;stop-opacity:1;"
         offset="0"
         id="stop4418" />
      <stop
         style="stop-color:#94abf3;stop-opacity:1;"
         offset="1"
         id="stop4420" />
    </linearGradient>
    <linearGradient
       inkscape:collect="always"
       xlink:href="#linearGradient4424"
       id="linearGradient4432"
       x1="0"
       y1="977.36218"
       x2="980"
       y2="977.36218"
       gradientUnits="userSpaceOnUse" />
  </defs>
  <sodipodi:namedview
     id="base"
     pagecolor="#ffffff"
     bordercolor="#666666"
     borderopacity="1.0"
     inkscape:pageopacity="0.0"
     inkscape:pageshadow="2"
     inkscape:zoom="0.98994949"
     inkscape:cx="308.42022"
     inkscape:cy="125.96148"
     inkscape:document-units="px"
     inkscape:current-layer="layer1"
     showgrid="false"
     inkscape:window-width="1366"
     inkscape:window-height="720"
     inkscape:window-x="0"
     inkscape:window-y="0"
     inkscape:window-maximized="1" />
  <metadata
     id="metadata3002">
    <rdf:RDF>
      <cc:Work
         rdf:about="">
        <dc:format>image/svg+xml</dc:format>
        <dc:type
           rdf:resource="http://purl.org/dc/dcmitype/StillImage" />
        <dc:title></dc:title>
      </cc:Work>
    </rdf:RDF>
  </metadata>
  <g
     inkscape:label="Capa 1"
     inkscape:groupmode="layer"
     id="layer1"
     transform="translate(0,-902.36218)"
     style="display:inline">
    <rect
       style="fill:url(#linearGradient4432);fill-opacity:1"
       id="rect3763"
       width="980"
       height="150"
       x="0"
       y="902.36218" />
    <rect
       style="opacity:0.6;fill:#d5d5f5;fill-opacity:1"
       id="rect3765"
       width="686.953"
       height="126"
       x="1.8274697"
       y="914.36218"
       ry="21.167999"
       inkscape:export-xdpi="90"
       inkscape:export-ydpi="90" />
    <flowRoot
       xml:space="preserve"
       id="flowRoot3016"
       style="font-size:25.8036232px;font-style:normal;font-variant:normal;font-weight:normal;font-stretch:normal;text-align:center;line-height:125%;letter-spacing:0px;word-spacing:0px;writing-mode:lr-tb;text-anchor:middle;fill:#000000;fill-opacity:1;stroke:none;font-family:Open Sans;-inkscape-font-specification:Open Sans"
       transform="matrix(1,0,0,0.93868227,216.5838,924.76843)"><flowRegion
         id="flowRegion3018"><rect
           id="rect3020"
           width="389.8819"
           height="96.289734"
           x="57.578693"
           y="7.568491"
           style="font-size:25.8036232px;font-style:normal;font-variant:normal;font-weight:normal;font-stretch:normal;text-align:center;writing-mode:lr-tb;text-anchor:middle;font-family:Open Sans;-inkscape-font-specification:Open Sans"
           ry="0" /></flowRegion><flowPara
         id="flowPara3022"
         style="font-size:25.8036232px;font-style:italic;font-weight:normal;text-align:center;writing-mode:lr-tb;text-anchor:middle;-inkscape-font-specification:Open Sans Italic">Ganar치s flexibilidad mental y resolver치s problemas de forma m치s r치pida y creativa</flowPara></flowRoot>  </g>
  <g
     inkscape:groupmode="layer"
     id="layer21"
     inkscape:label="ejecutivo"
     style="display:inline">
    <path
       style="fill:#cfe3f7;fill-opacity:1;stroke:none;display:inline"
       d="m 714.43039,170.96067 -13.13199,-47.98225 7.82869,-30.809653 10.10152,-5.555839 25.00128,-0.757615 13.8896,11.111678 -35.35534,73.993679 z"
       id="path3900"
       inkscape:connector-curvature="0" />
    <path
       sodipodi:nodetypes="csssssscsssccccccccssssssscsscc"
       style="fill:#43454e;fill-opacity:1;stroke:none;display:inline"
       d="m 653.82124,172.22336 c 1.76776,-5.42957 3.40926,-11.8693 3.40926,-12.62691 0,-0.75762 0.63046,-10.4342 1.51523,-11.99556 1.07329,-1.89404 1.70463,-3.85121 1.57837,-5.24017 -0.0871,-0.95768 -0.75762,-2.27284 1.07328,-7.26047 2.12545,-5.79004 3.03046,-6.81853 3.15673,-8.08122 0.12627,-1.26269 0.31902,-1.29741 1.45209,-4.04061 1.19956,-2.90419 0.25257,-3.72494 0.56821,-4.60882 0.31567,-0.88389 1.07329,-1.76777 4.35628,-10.92228 3.283,-9.154503 6.7554,-8.081216 7.26048,-8.207485 0.50507,-0.12627 9.28077,-0.252539 20.45558,-5.240167 11.17482,-4.987628 5.24017,4.293149 5.24017,4.293149 l 3.53554,19.950513 1.32582,20.8344 7.70241,25.82202 16.16244,-18.18275 14.64722,-34.85026 11.86929,-26.011427 2.77792,-0.883883 c 0,0 4.67195,1.894036 8.33376,2.904188 3.6618,1.010153 26.01142,7.828683 29.16815,8.965104 3.15673,1.136422 5.68211,2.146574 7.19734,6.565988 1.51523,4.41942 3.40926,10.2278 3.6618,14.89975 0.25254,4.67196 -0.63134,3.03046 2.52538,7.44988 3.15673,4.41942 2.39911,7.19734 2.39911,8.5863 0,1.38896 -0.3788,3.78807 0.69448,6.56599 1.07329,2.77792 1.09496,3.6293 0.49239,6.58131 0.74492,2.71293 0.0127,12.86412 0.0127,13.87428 0,1.01015 -0.50508,3.28299 -0.69448,6.12405 -0.1894,2.84105 2.46225,4.86136 2.46225,4.86136 z"
       id="path4427"
       inkscape:connector-curvature="0" />
    <path
       style="fill:#555961;fill-opacity:1;stroke:none;display:inline"
       d="m 714.82143,161.78571 c 0,-4.82142 1.42857,-33.03571 1.42857,-34.28571 0,-1.25 0.53572,-4.64286 1.42857,-8.75 0.89286,-4.10714 6.60715,-22.678571 6.60715,-22.678571 l 6.96428,0.892857 c 0,0 -0.53571,20.357144 -0.53571,21.964284 0,1.60714 -0.35715,8.03572 -0.53572,10.89286 -0.17857,2.85714 -0.71428,15.89286 -0.71428,15.89286 l -12.68214,26.35123 -1.12064,-4.10375 z"
       id="path4411"
       inkscape:connector-curvature="0"
       sodipodi:nodetypes="cssccsscccc" />
    <path
       style="fill:#4d535a;fill-opacity:1;stroke:none;display:inline"
       d="m 717.83965,91.78996 c 2.90419,4.356282 3.97748,6.313453 4.41942,6.881664 0.44194,0.568211 1.45209,3.030456 4.10375,3.409266 2.65165,0.37881 5.80837,-0.94702 6.62912,-1.95717 0.82075,-1.010155 3.4724,-7.007935 3.78807,-7.828684 0.31568,-0.820749 -5.42957,-4.798225 -5.42957,-4.798225 l -8.64943,0.315673 z"
       id="path4414"
       inkscape:connector-curvature="0" />
    <path
       sodipodi:nodetypes="cscccc"
       style="fill:#a7afb9;fill-opacity:1;stroke:none;display:inline"
       d="m 726.23655,88.885771 c -1.57837,0.947018 -12.50064,9.280776 -13.25826,10.796005 -0.75761,1.515234 -1.01015,-8.965104 -1.01015,-8.965104 l 1.8309,-8.649431 c 0,0 0,-1.452094 1.6415,-2.525381 0.85232,1.420527 4.16689,7.292039 10.79601,9.343911 z"
       id="path4417"
       inkscape:connector-curvature="0" />
    <path
       sodipodi:nodetypes="ccccscc"
       style="fill:#a7afb9;fill-opacity:1;stroke:none;display:inline"
       d="m 743.78795,98.734758 c -1.57837,-2.399112 -9.67491,-8.527649 -12.38969,-10.169147 5.18469,-2.024791 19.34148,-10.895795 20.35164,-12.9161 0.10278,-0.258886 0.29251,-0.761118 0.22549,-0.895046 -0.067,-0.133929 3.33706,2.388392 3.51563,3.504463 0.17857,1.116072 -11.75446,19.478445 -11.70312,20.47583 z"
       id="path4419"
       inkscape:connector-curvature="0" />
    <path
       style="fill:#33363d;fill-opacity:1;stroke:none;display:inline"
       d="m 713.79465,82.154018 c -0.98215,2.589286 -3.52679,6.506696 -4.95536,7.310268 -1.42857,0.803571 -9.82143,4.196428 -9.82143,4.196428 l -0.17857,17.053576 5.71428,4.55357 -4.82143,6.69643 16.96429,49.82142 c 0,0 -3.58257,-29.0606 -4.1333,-34.68881 -0.95576,-9.76763 -1.13139,-17.69558 -0.25253,-29.6735 0.3358,-7.947032 1.20548,-25.213668 1.48405,-25.269382 z"
       id="path4422"
       inkscape:connector-curvature="0"
       sodipodi:nodetypes="cscccccscc" />
    <path
       style="fill:#33363d;fill-opacity:1;stroke:none;display:inline"
       d="m 717.00893,171.65179 c 0,0 19.0625,-55.58036 20.3125,-58.79465 1.25,-3.21428 2.85714,-7.32143 5.71429,-12.67857 2.85714,-5.357141 11.78571,-21.607142 12.5,-21.964284 0.71428,-0.357143 8.48214,7.633928 9.64285,7.901785 1.16072,0.267857 -5.17857,14.910719 -4.6875,17.455359 l -8.57143,5.3125 4.64286,8.03571 z"
       id="path4424"
       inkscape:connector-curvature="0" />
    <path
       style="fill:#c1a18a;fill-opacity:1;stroke:none;display:inline"
       d="m 715.31427,76.19573 c 0,0.631345 -0.0631,3.030457 0.0631,3.34613 0.12627,0.315673 3.40926,5.366435 4.48255,6.250319 1.07329,0.883883 5.87151,3.219861 6.75539,3.282996 0.88389,0.06313 4.10375,0.56821 7.76555,-1.578364 3.6618,-2.146574 12.18497,-6.944799 12.69004,-7.323606 0.50508,-0.378807 5.1139,-3.788072 4.9245,-5.366435 -0.18941,-1.578364 -0.88389,-6.439723 -0.85232,-7.102635 0.0316,-0.662913 -0.53664,-8.302192 -0.41037,-8.712566 0.12627,-0.410374 -31.50414,12.59534 -31.50414,12.59534 z"
       id="path4430"
       inkscape:connector-curvature="0" />
    <path
       style="fill:#d1b8a3;fill-opacity:1;stroke:none;display:inline"
       d="m 702.58929,42.767857 c 0.40178,1.339286 1.42857,5.267857 1.11607,4.955357 -0.3125,-0.3125 -1.38393,-1.25 -2.09822,-0.491071 -0.71428,0.758928 0.35715,3.839285 0.625,4.464285 0.26786,0.625 1.25,2.410715 1.29465,3.392858 0.0446,0.982142 1.5625,6.25 2.05357,7.276785 0.49107,1.026786 4.82143,10.133929 6.16071,11.383929 1.33929,1.25 4.64286,3.883928 9.10715,5.178571 4.46428,1.294643 8.16964,1.294643 14.91071,-1.964285 6.74107,-3.258929 10.84821,-5.535715 12.45536,-8.526786 1.60714,-2.991072 3.39285,-9.330357 3.39285,-10.892857 1.5625,0.133928 4.10715,-1.428572 5.26786,-3.482143 1.16072,-2.053572 2.14286,-6.741072 1.65179,-9.642857 -0.49107,-2.901786 -2.67857,-4.508929 -3.30357,-4.6875 -0.625,-0.178572 -2.8125,0.401785 -5.53572,5.357142 -0.17857,-1.741071 -5.44643,-11.25 -5.44643,-11.25 l 1.20536,-10.624999 -8.75,-6.160715 -28.39286,0.714286 -8.125,7.142857 z"
       id="path4433"
       inkscape:connector-curvature="0" />
    <path
       style="fill:#534c4b;fill-opacity:1;stroke:none"
       d="m 703.52679,47.098214 c 0.0446,-0.758929 -0.44643,-5.044643 -0.44643,-5.446429 0,-0.401785 -0.89286,-13.616071 -0.66964,-14.866071 0.22321,-1.25 1.51785,-6.026786 8.21428,-7.1875 6.69643,-1.160714 7.00893,0.3125 7.85714,0.357143 0.84822,0.04464 16.38393,-0.04464 17.41072,0.9375 1.02678,0.982143 4.10714,2.544643 6.74107,5.491071 0.44643,0.3125 0.80357,1.071429 0.66964,2.991072 -0.13393,1.919643 -0.66964,4.955357 0.58036,7.321428 1.25,2.366072 5.08929,8.348215 5.3125,8.571429 0.22321,0.223214 1.29464,-1.116072 1.74107,-1.741072 0.44643,-0.625 3.25893,-4.6875 4.46429,-3.705357 0.35714,0.08929 0.53571,0.267857 0.53571,0.267857 0,0 -0.53571,-2.678571 -0.53571,-3.125 0,-0.446428 -1.02679,-12.633928 -0.98215,-13.169642 0.0447,-0.535715 -0.89285,-3.928572 -2.5,-5.535715 C 750.3125,16.651785 740.53572,8.9285712 727.14286,6.0714283 713.75,3.2142855 704.82143,13.125 702.67857,15.535714 c -2.14285,2.410714 -5.89285,6.160714 -5.17857,12.053572 0.71429,5.892857 4.28572,17.232142 6.02679,19.508928 z"
       id="path4436"
       inkscape:connector-curvature="0" />
  </g>
  <g
     inkscape:groupmode="layer"
     id="layer26"
     inkscape:label="mano papel"
     style="display:inline">
    <g
       id="g5440">
      <path
         inkscape:connector-curvature="0"
         id="path5122"
         d="m 180.41124,117.43586 c 0,0 6.21392,-7.55027 7.47651,-8.22584 1.26259,-0.67556 8.66379,-1.68411 9.38197,-1.79143 0.71817,-0.10731 -4.44253,-36.047985 -4.44253,-36.047985 l -18.9964,13.258099 -4.53322,11.778568 -6.37048,6.502518 z"
         style="fill:#ffd7b7;fill-opacity:1;stroke:none" />
      <path
         inkscape:connector-curvature="0"
         id="path5120"
         d="m 187.35748,99.790353 c 2.93416,-0.713868 3.82527,-3.188174 3.90201,-4.163642 0.0767,-0.975468 0.51285,-5.998355 -6.01931,-11.494854 0,0 5.35337,-6.859377 5.26866,-6.433571 -0.0847,0.425798 -2.43389,-2.390604 -2.43389,-2.390604 l -8.12272,10.165187 z"
         style="fill:#f2bf96;fill-opacity:1;stroke:none" />
      <rect
         transform="matrix(0.98901943,-0.14778554,0.14778554,0.98901943,0,0)"
         y="61.330635"
         x="174.76801"
         height="92.84243"
         width="71.370224"
         id="rect5053"
         style="fill:#ffffff;fill-opacity:1;stroke:none;display:inline" />
      <rect
         transform="matrix(0.98901943,-0.14778554,0.14778554,0.98901943,0,0)"
         y="74.043495"
         x="180.78468"
         height="8.5715523"
         width="58.506989"
         id="rect5056"
         style="fill:none;stroke:#6f6f6f;stroke-width:0.79159325;stroke-opacity:1" />
      <text
         transform="matrix(0.95862074,-0.16422874,0.1329887,1.0203821,0,0)"
         sodipodi:linespacing="125%"
         id="text5058"
         y="82.810654"
         x="188.82974"
         style="font-size:5.65546751px;font-style:normal;font-weight:bold;line-height:125%;letter-spacing:0px;word-spacing:0px;fill:#6f6f6f;fill-opacity:1;stroke:none;font-family:Sans;-inkscape-font-specification:Sans Bold"
         xml:space="preserve"><tspan
           y="82.810654"
           x="188.82974"
           id="tspan5060"
           sodipodi:role="line">METAS LOGRADAS</tspan></text>
      <rect
         transform="matrix(0.98901943,-0.14778554,0.14778554,0.98901943,0,0)"
         y="90.512428"
         x="198.1086"
         height="1.7335722"
         width="24.585384"
         id="rect5062"
         style="fill:#6f6f6f;fill-opacity:1;stroke:#6f6f6f;stroke-width:0.07915933;stroke-linecap:round;stroke-linejoin:bevel;stroke-miterlimit:4;stroke-opacity:1;stroke-dasharray:none" />
      <rect
         transform="matrix(0.98901943,-0.14778554,0.14778554,0.98901943,0,0)"
         y="95.038971"
         x="189.39476"
         height="2.1188107"
         width="42.012997"
         id="rect5064"
         style="fill:#6f6f6f;fill-opacity:1;stroke:#6f6f6f;stroke-width:0.07915933;stroke-linecap:round;stroke-linejoin:bevel;stroke-miterlimit:4;stroke-opacity:1;stroke-dasharray:none" />
      <rect
         transform="matrix(0.98901943,-0.14778554,0.14778554,0.98901943,0,0)"
         style="fill:#6f6f6f;fill-opacity:1;stroke:#6f6f6f;stroke-width:0.07915933;stroke-linecap:round;stroke-linejoin:bevel;stroke-miterlimit:4;stroke-opacity:1;stroke-dasharray:none"
         id="rect5066"
         width="42.012997"
         height="2.1188107"
         x="189.39476"
         y="99.111427" />
      <rect
         transform="matrix(0.98901943,-0.14778554,0.14778554,0.98901943,0,0)"
         y="102.92509"
         x="189.54149"
         height="2.1188107"
         width="42.012997"
         id="rect5068"
         style="fill:#6f6f6f;fill-opacity:1;stroke:#6f6f6f;stroke-width:0.07915933;stroke-linecap:round;stroke-linejoin:bevel;stroke-miterlimit:4;stroke-opacity:1;stroke-dasharray:none" />
      <rect
         transform="matrix(0.98901943,-0.14778554,0.14778554,0.98901943,0,0)"
         style="fill:#6f6f6f;fill-opacity:1;stroke:#6f6f6f;stroke-width:0.05509983;stroke-linecap:round;stroke-linejoin:bevel;stroke-miterlimit:4;stroke-opacity:1;stroke-dasharray:none"
         id="rect5070"
         width="20.355419"
         height="2.1188107"
         x="189.54149"
         y="106.87378" />
      <path
         inkscape:connector-curvature="0"
         id="path5072"
         d="m 203.26598,89.286542 4.50361,28.735458 48.04669,-7.66634"
         style="fill:none;stroke:#6f6f6f;stroke-width:0.79159325px;stroke-linecap:butt;stroke-linejoin:miter;stroke-opacity:1" />
      <path
         inkscape:connector-curvature="0"
         id="path5074"
         d="m 203.93256,90.939753 47.89843,-7.254666"
         style="fill:none;stroke:#6f6f6f;stroke-width:0.79159325px;stroke-linecap:butt;stroke-linejoin:miter;stroke-opacity:1" />
      <path
         inkscape:connector-curvature="0"
         id="path5076"
         d="m 204.82629,97.62273 47.81006,-7.144082"
         style="fill:none;stroke:#6f6f6f;stroke-width:0.79159325px;stroke-linecap:butt;stroke-linejoin:miter;stroke-opacity:1" />
      <path
         inkscape:connector-curvature="0"
         id="path5078"
         d="m 205.73424,104.40095 47.8243,-7.048827"
         style="fill:none;stroke:#6f6f6f;stroke-width:0.79159325px;stroke-linecap:butt;stroke-linejoin:miter;stroke-opacity:1" />
      <path
         inkscape:connector-curvature="0"
         id="path5080"
         d="m 206.75903,111.2591 47.79583,-7.23934"
         style="fill:none;stroke:#6f6f6f;stroke-width:0.79159325px;stroke-linecap:butt;stroke-linejoin:miter;stroke-opacity:1" />
      <path
         inkscape:connector-curvature="0"
         id="path5082"
         d="m 212.51392,88.002035 4.37254,28.560285"
         style="fill:none;stroke:#6f6f6f;stroke-width:0.79159325px;stroke-linecap:butt;stroke-linejoin:miter;stroke-opacity:1" />
      <path
         inkscape:connector-curvature="0"
         id="path5084"
         d="m 221.64502,86.637608 4.13888,28.400432"
         style="fill:none;stroke:#6f6f6f;stroke-width:0.79159325px;stroke-linecap:butt;stroke-linejoin:miter;stroke-opacity:1" />
      <path
         inkscape:connector-curvature="0"
         id="path5086"
         d="M 230.98132,85.242518 235.428,113.59696"
         style="fill:none;stroke:#6f6f6f;stroke-width:0.79159325px;stroke-linecap:butt;stroke-linejoin:miter;stroke-opacity:1" />
      <path
         inkscape:connector-curvature="0"
         id="path5088"
         d="m 240.20079,83.767508 4.18159,28.686192"
         style="fill:none;stroke:#6f6f6f;stroke-width:0.79159325px;stroke-linecap:butt;stroke-linejoin:miter;stroke-opacity:1" />
      <path
         inkscape:connector-curvature="0"
         id="path5090"
         d="m 249.03834,82.544325 4.22725,28.289855"
         style="fill:none;stroke:#6f6f6f;stroke-width:0.79159325px;stroke-linecap:butt;stroke-linejoin:miter;stroke-opacity:1" />
      <rect
         transform="matrix(0.98901943,-0.14778554,0.14778554,0.98901943,0,0)"
         y="120.561"
         x="184.20801"
         height="1.1557149"
         width="2.5933948"
         id="rect5092"
         style="fill:#6f6f6f;fill-opacity:1;stroke:#6f6f6f;stroke-width:0.07915933;stroke-linecap:round;stroke-linejoin:bevel;stroke-miterlimit:4;stroke-opacity:1;stroke-dasharray:none" />
      <rect
         transform="matrix(0.98901943,-0.14778554,0.14778554,0.98901943,0,0)"
         style="fill:#6f6f6f;fill-opacity:1;stroke:#6f6f6f;stroke-width:0.07915933;stroke-linecap:round;stroke-linejoin:bevel;stroke-miterlimit:4;stroke-opacity:1;stroke-dasharray:none"
         id="rect5094"
         width="2.5933948"
         height="1.1557149"
         x="184.31175"
         y="127.0481" />
      <rect
         transform="matrix(0.98901943,-0.14778554,0.14778554,0.98901943,0,0)"
         y="133.80865"
         x="184.31175"
         height="1.1557149"
         width="2.5933948"
         id="rect5096"
         style="fill:#6f6f6f;fill-opacity:1;stroke:#6f6f6f;stroke-width:0.07915933;stroke-linecap:round;stroke-linejoin:bevel;stroke-miterlimit:4;stroke-opacity:1;stroke-dasharray:none" />
      <rect
         transform="matrix(0.98901943,-0.14778554,0.14778554,0.98901943,0,0)"
         style="fill:#6f6f6f;fill-opacity:1;stroke:#6f6f6f;stroke-width:0.07915933;stroke-linecap:round;stroke-linejoin:bevel;stroke-miterlimit:4;stroke-opacity:1;stroke-dasharray:none"
         id="rect5098"
         width="2.5933948"
         height="1.1557149"
         x="184.31175"
         y="140.55032" />
      <rect
         transform="matrix(0.98901943,-0.14778554,0.14778554,0.98901943,0,0)"
         y="148.22688"
         x="186.69766"
         height="1.1557149"
         width="2.5933948"
         id="rect5100"
         style="fill:#6f6f6f;fill-opacity:1;stroke:#6f6f6f;stroke-width:0.07915933;stroke-linecap:round;stroke-linejoin:bevel;stroke-miterlimit:4;stroke-opacity:1;stroke-dasharray:none" />
      <rect
         transform="matrix(0.98901943,-0.14778554,0.14778554,0.98901943,0,0)"
         style="fill:#6f6f6f;fill-opacity:1;stroke:#6f6f6f;stroke-width:0.07915933;stroke-linecap:round;stroke-linejoin:bevel;stroke-miterlimit:4;stroke-opacity:1;stroke-dasharray:none"
         id="rect5102"
         width="2.5933948"
         height="1.1557149"
         x="195.93379"
         y="148.19864" />
      <rect
         transform="matrix(0.98901943,-0.14778554,0.14778554,0.98901943,0,0)"
         y="148.15877"
         x="204.77167"
         height="1.1557149"
         width="2.5933948"
         id="rect5104"
         style="fill:#6f6f6f;fill-opacity:1;stroke:#6f6f6f;stroke-width:0.07915933;stroke-linecap:round;stroke-linejoin:bevel;stroke-miterlimit:4;stroke-opacity:1;stroke-dasharray:none" />
      <rect
         transform="matrix(0.98901943,-0.14778554,0.14778554,0.98901943,0,0)"
         style="fill:#6f6f6f;fill-opacity:1;stroke:#6f6f6f;stroke-width:0.07915933;stroke-linecap:round;stroke-linejoin:bevel;stroke-miterlimit:4;stroke-opacity:1;stroke-dasharray:none"
         id="rect5106"
         width="2.5933948"
         height="1.1557149"
         x="214.63022"
         y="148.15877" />
      <rect
         transform="matrix(0.98901943,-0.14778554,0.14778554,0.98901943,0,0)"
         y="148.15877"
         x="223.86633"
         height="1.1557149"
         width="2.5933948"
         id="rect5108"
         style="fill:#6f6f6f;fill-opacity:1;stroke:#6f6f6f;stroke-width:0.07915933;stroke-linecap:round;stroke-linejoin:bevel;stroke-miterlimit:4;stroke-opacity:1;stroke-dasharray:none" />
      <rect
         transform="matrix(0.98901943,-0.14778554,0.14778554,0.98901943,0,0)"
         style="fill:#6f6f6f;fill-opacity:1;stroke:#6f6f6f;stroke-width:0.07915933;stroke-linecap:round;stroke-linejoin:bevel;stroke-miterlimit:4;stroke-opacity:1;stroke-dasharray:none"
         id="rect5110"
         width="2.5933948"
         height="1.1557149"
         x="232.70422"
         y="148.15877" />
      <path
         inkscape:connector-curvature="0"
         id="path5112"
         d="m 207.1653,117.69429 7.30456,-22.092954 10.52098,12.337044 8.42256,-7.66227 10.1574,5.4368 4.74866,-17.855026"
         style="fill:none;stroke:#3c70d8;stroke-width:1.5;stroke-linecap:butt;stroke-linejoin:miter;stroke-miterlimit:4;stroke-opacity:1;stroke-dasharray:none" />
      <path
         inkscape:connector-curvature="0"
         id="path5114"
         d="m 244.79634,88.672684 4.98866,-5.703585 1.01749,7.701406 -2.50682,-2.478697 z"
         style="fill:#3c70d8;fill-opacity:1;stroke:none" />
      <path
         sodipodi:nodetypes="csscsssc"
         inkscape:connector-curvature="0"
         id="path5117"
         d="m 163.92107,101.77751 c 0.99972,-1.2511 4.32514,-3.813724 4.9097,-4.865074 0.58457,-1.051351 -1.7839,-8.960304 2.27536,-13.560583 4.05926,-4.600288 20.65801,-22.814453 22.14731,-23.518995 0.5743,0.12075 6.43446,5.338958 3.02014,9.292012 -3.41431,3.953046 -14.08833,14.912613 -13.98769,15.586149 0.10065,0.673528 9.5351,3.257499 6.68774,14.975551 -2.84734,11.71806 -25.05256,2.09094 -25.05256,2.09094 z"
         style="fill:#ffd7b7;fill-opacity:1;stroke:none;display:inline" />
      <path
         inkscape:connector-curvature="0"
         id="path5125"
         d="m 154.21408,109.17806 8.32872,-8.84008 20.05144,16.96645 -6.7524,6.75434 z"
         style="fill:#ffffff;fill-opacity:1;stroke:none" />
      <path
         inkscape:connector-curvature="0"
         id="path5127"
         d="m 155.46119,103.73021 22.95334,18.60449 -45.18281,44.07212 -45.329615,6.36029 z"
         style="fill:#62c4c4;fill-opacity:1;stroke:none" />
      <path
         sodipodi:nodetypes="ccccc"
         inkscape:connector-curvature="0"
         id="path5129"
         d="m 180.16739,124.13849 -11.70228,-9.81939 -52.45509,53.97252 23.58821,-2.83612 z"
         style="fill:#339c9c;fill-opacity:1;stroke:none;display:inline" />
    </g>
  </g>
  <g
     inkscape:groupmode="layer"
     id="layer27"
     inkscape:label="mano dedo"
     style="display:inline">
    <path
       style="fill:#ffd4b7;fill-opacity:1;stroke:none"
       d="m 124.1449,46.633121 c 0.50508,-4.419416 3.40927,-12.626911 3.91434,-13.258251 0.50508,-0.63135 3.66181,-13.63706 -3.91434,-10.98541 -0.94702,0.50508 -2.14657,-1.45209 -4.29314,7.891816 -1.47581,6.424108 -7.51302,17.046324 -14.52095,21.402604 -1.45209,0.25254 -7.954946,0.12627 -7.954946,0.12627 l -0.50508,27.9686 c 0,0 8.396896,-0.31567 8.333756,-0.0631 -0.0631,0.25254 0.88388,6.43972 11.30108,6.25032 10.4172,-0.18941 7.13421,-38.827743 7.13421,-38.827743 z"
       id="path5231"
       inkscape:connector-curvature="0"
       sodipodi:nodetypes="cscsccccscc" />
    <path
       style="fill:#f2bf96;fill-opacity:1;stroke:none"
       d="m 117.41071,86.60715 c -0.98214,0.0893 -6.69643,-4.73215 -1.875,-10.17857 C 113.21428,75.44643 109.46428,68.75 115,65.98215 c -1.07143,-0.44643 -7.41072,-7.41072 0.625,-11.78572 -2.41072,-1.25 -3.21429,-8.83928 1.69642,-10.44643 0.625,-0.17857 8.66072,0.625 8.66072,0.625 L 121.875,84.55358 z"
       id="path5219"
       inkscape:connector-curvature="0" />
    <path
       style="fill:#ffd4b7;fill-opacity:1;stroke:none"
       d="m 136.32986,86.69198 c 0.63135,-0.12627 6.62913,-4.60881 -1.10485,-8.90196 3.97748,-0.0631 12.09027,-4.32472 3.44084,-10.38564 3.12515,-0.28411 14.29996,-5.71368 1.07328,-11.23795 6.71256,-0.54543 8.0849,-8.68613 0.56821,-11.04854 0,0 -21.29889,-0.91582 -22.72843,-0.63134 -1.20871,0.0265 -6.12405,6.25032 0.37881,10.10152 -2.27284,0.37881 -9.28078,5.99779 -0.82075,11.36422 -5.68211,1.07328 -4.29315,10.03839 1.01015,10.16466 -5.3033,0.25254 -4.10375,10.22779 0.0631,10.48033 0,0 17.51987,0.18941 18.11964,0.0947 z"
       id="path5217"
       inkscape:connector-curvature="0"
       sodipodi:nodetypes="ccccccccccc" />
    <path
       style="fill:none;stroke:#f2bf96;stroke-width:0.80000001;stroke-linecap:round;stroke-linejoin:miter;stroke-miterlimit:4;stroke-opacity:1;stroke-dasharray:none"
       d="m 116.78571,54.55358 22.67857,1.51785"
       id="path5221"
       inkscape:connector-curvature="0" />
    <path
       style="fill:none;stroke:#f2bf96;stroke-width:0.80000001;stroke-linecap:round;stroke-linejoin:miter;stroke-miterlimit:4;stroke-opacity:1;stroke-dasharray:none"
       d="m 115.71428,65.98215 22.76786,1.60714"
       id="path5223"
       inkscape:connector-curvature="0" />
    <path
       style="fill:none;stroke:#f2bf96;stroke-width:0.80000001;stroke-linecap:round;stroke-linejoin:miter;stroke-miterlimit:4;stroke-opacity:1;stroke-dasharray:none"
       d="m 116.16071,76.16072 18.66071,1.69643"
       id="path5225"
       inkscape:connector-curvature="0" />
    <path
       style="fill:#fab85c;fill-opacity:1;stroke:none"
       d="M 85.885374,49.53731 100.40632,50.04239 97.502134,80.72577 84.748954,80.5995 z"
       id="path5233"
       inkscape:connector-curvature="0" />
    <path
       style="fill:#80a6c2;fill-opacity:1;stroke:none"
       d="m -7.5,41.07143 99.464284,6.07143 -2.14286,33.75 -100.53571,-10 z"
       id="path5235"
       inkscape:connector-curvature="0" />
    <path
       style="fill:#56809e;fill-opacity:1;stroke:none;display:inline"
       d="m -10,76.78572 99.464284,5.89286 0.71429,-19.28572 -99.464288,-5.53571 z"
       id="path5237"
       inkscape:connector-curvature="0" />
  </g>
</svg>
